999
FreeCAD v1.1 20260414 (Git shallow)
  0
SECTION
  2
HEADER
  9
$ACADVER
  1
AC1014
  9
$ACADMAINTVER
 70
     9
  9
$DWGCODEPAGE
  3
ANSI_1252
  9
$TEXTSTYLE
  7
STANDARD
  9
$DIMSTYLE
  2
STANDARD
  9
$DIMTXSTY
  7
STANDARD
  9
$CMLSTYLE
  2
STANDARD
  9
$LUNITS
 70
2
  9
$INSUNITS
 70
4
  9
$PEXTMAX
 10
50
 20
50
 30
50
  9
$PEXTMIN
 10
0
 20
0
 30
0
  9
$HANDSEED
  5
FFFF
  0
ENDSEC
  0
SECTION
  2
CLASSES
  0
CLASS
  1
ACDBDICTIONARYWDFLT
  2
AcDbDictionaryWithDefault
  3
ObjectDBX Classes
 90
        0
280
     0
281
     0
  0
CLASS
  1
XRECORD
  2
AcDbXrecord
  3
ObjectDBX Classes
 90
        0
280
     0
281
     0
  0
CLASS
  1
LWPOLYLINE
  2
AcDbPolyline
  3
ObjectDBX Classes
 90
        0
280
     0
281
     1
  0
ENDSEC
  0
SECTION
  2
TABLES
  0
TABLE
  2
VPORT
  5
20
330
0
100
AcDbSymbolTable
 70
     1
  0
VPORT
  5
21
330
20
100
AcDbSymbolTableRecord
100
AcDbViewportTableRecord
  2
*ACTIVE
 70
     0
  0
ENDTAB
  0
TABLE
  2
LTYPE
  5
22
330
0
100
AcDbSymbolTable
 70
     1
  0
LTYPE
  5
23
330
21
100
AcDbSymbolTableRecord
100
AcDbLinetypeTableRecord
  2
BYBLOCK
 70
     0
  3

 72
    65
 73
     0
 40
0.0
  0
LTYPE
  5
24
330
21
100
AcDbSymbolTableRecord
100
AcDbLinetypeTableRecord
  2
BYLAYER
 70
     0
  3

 72
    65
 73
     0
 40
0.0
  0
LTYPE
  5
25
330
21
100
AcDbSymbolTableRecord
100
AcDbLinetypeTableRecord
  2
CONTINUOUS
 70
     0
  3
Solid line
 72
    65
 73
     0
 40
0.0
  0
ENDTAB
  0
TABLE
  2
LAYER
  5
A49
330
0
100
AcDbSymbolTable
 70
78
  0
LAYER
  5
A4A
330
A49
100
AcDbSymbolTableRecord
100
AcDbLayerTableRecord
  2
0
 70
   0
 62
   7
  6
CONTINUOUS
  0
LAYER
  5
A4B
330
A49
100
AcDbSymbolTableRecord
100
AcDbLayerTableRecord
  2
none
 70
    0
 62
    7
  6
CONTINUOUS
  0
LAYER
  5
A4C
330
A49
100
AcDbSymbolTableRecord
100
AcDbLayerTableRecord
  2
Line
 70
    0
 62
    7
  6
CONTINUOUS
  0
LAYER
  5
A4D
330
A49
100
AcDbSymbolTableRecord
100
AcDbLayerTableRecord
  2
Line001
 70
    0
 62
    7
  6
CONTINUOUS
  0
LAYER
  5
A4E
330
A49
100
AcDbSymbolTableRecord
100
AcDbLayerTableRecord
  2
Line002
 70
    0
 62
    7
  6
CONTINUOUS
  0
LAYER
  5
A4F
330
A49
100
AcDbSymbolTableRecord
100
AcDbLayerTableRecord
  2
Line005
 70
    0
 62
    7
  6
CONTINUOUS
  0
LAYER
  5
A50
330
A49
100
AcDbSymbolTableRecord
100
AcDbLayerTableRecord
  2
Line014
 70
    0
 62
    7
  6
CONTINUOUS
  0
LAYER
  5
A51
330
A49
100
AcDbSymbolTableRecord
100
AcDbLayerTableRecord
  2
Line019
 70
    0
 62
    7
  6
CONTINUOUS
  0
LAYER
  5
A52
330
A49
100
AcDbSymbolTableRecord
100
AcDbLayerTableRecord
  2
Line024
 70
    0
 62
    7
  6
CONTINUOUS
  0
LAYER
  5
A53
330
A49
100
AcDbSymbolTableRecord
100
AcDbLayerTableRecord
  2
Line026
 70
    0
 62
    7
  6
CONTINUOUS
  0
LAYER
  5
A54
330
A49
100
AcDbSymbolTableRecord
100
AcDbLayerTableRecord
  2
Line027
 70
    0
 62
    7
  6
CONTINUOUS
  0
LAYER
  5
A55
330
A49
100
AcDbSymbolTableRecord
100
AcDbLayerTableRecord
  2
Line032
 70
    0
 62
    7
  6
CONTINUOUS
  0
LAYER
  5
A56
330
A49
100
AcDbSymbolTableRecord
100
AcDbLayerTableRecord
  2
Line033
 70
    0
 62
    7
  6
CONTINUOUS
  0
LAYER
  5
A57
330
A49
100
AcDbSymbolTableRecord
100
AcDbLayerTableRecord
  2
Line035
 70
    0
 62
    7
  6
CONTINUOUS
  0
LAYER
  5
A58
330
A49
100
AcDbSymbolTableRecord
100
AcDbLayerTableRecord
  2
Line036
 70
    0
 62
    7
  6
CONTINUOUS
  0
LAYER
  5
A59
330
A49
100
AcDbSymbolTableRecord
100
AcDbLayerTableRecord
  2
Line043
 70
    0
 62
    7
  6
CONTINUOUS
  0
LAYER
  5
A5A
330
A49
100
AcDbSymbolTableRecord
100
AcDbLayerTableRecord
  2
Line048
 70
    0
 62
    7
  6
CONTINUOUS
  0
LAYER
  5
A5B
330
A49
100
AcDbSymbolTableRecord
100
AcDbLayerTableRecord
  2
Line051
 70
    0
 62
    7
  6
CONTINUOUS
  0
LAYER
  5
A5C
330
A49
100
AcDbSymbolTableRecord
100
AcDbLayerTableRecord
  2
Line053
 70
    0
 62
    7
  6
CONTINUOUS
  0
LAYER
  5
A5D
330
A49
100
AcDbSymbolTableRecord
100
AcDbLayerTableRecord
  2
Line055
 70
    0
 62
    7
  6
CONTINUOUS
  0
LAYER
  5
A5E
330
A49
100
AcDbSymbolTableRecord
100
AcDbLayerTableRecord
  2
Line057
 70
    0
 62
    7
  6
CONTINUOUS
  0
LAYER
  5
A5F
330
A49
100
AcDbSymbolTableRecord
100
AcDbLayerTableRecord
  2
Line059
 70
    0
 62
    7
  6
CONTINUOUS
  0
LAYER
  5
A60
330
A49
100
AcDbSymbolTableRecord
100
AcDbLayerTableRecord
  2
Line062
 70
    0
 62
    7
  6
CONTINUOUS
  0
LAYER
  5
A61
330
A49
100
AcDbSymbolTableRecord
100
AcDbLayerTableRecord
  2
Line065
 70
    0
 62
    7
  6
CONTINUOUS
  0
LAYER
  5
A62
330
A49
100
AcDbSymbolTableRecord
100
AcDbLayerTableRecord
  2
Line076
 70
    0
 62
    7
  6
CONTINUOUS
  0
LAYER
  5
A63
330
A49
100
AcDbSymbolTableRecord
100
AcDbLayerTableRecord
  2
Line122
 70
    0
 62
    7
  6
CONTINUOUS
  0
LAYER
  5
A64
330
A49
100
AcDbSymbolTableRecord
100
AcDbLayerTableRecord
  2
Line083
 70
    0
 62
    7
  6
CONTINUOUS
  0
LAYER
  5
A65
330
A49
100
AcDbSymbolTableRecord
100
AcDbLayerTableRecord
  2
Line128
 70
    0
 62
    7
  6
CONTINUOUS
  0
LAYER
  5
A66
330
A49
100
AcDbSymbolTableRecord
100
AcDbLayerTableRecord
  2
Line137
 70
    0
 62
    7
  6
CONTINUOUS
  0
LAYER
  5
A67
330
A49
100
AcDbSymbolTableRecord
100
AcDbLayerTableRecord
  2
Line140
 70
    0
 62
    7
  6
CONTINUOUS
  0
LAYER
  5
A68
330
A49
100
AcDbSymbolTableRecord
100
AcDbLayerTableRecord
  2
Line142
 70
    0
 62
    7
  6
CONTINUOUS
  0
LAYER
  5
A69
330
A49
100
AcDbSymbolTableRecord
100
AcDbLayerTableRecord
  2
Line145
 70
    0
 62
    7
  6
CONTINUOUS
  0
LAYER
  5
A6A
330
A49
100
AcDbSymbolTableRecord
100
AcDbLayerTableRecord
  2
Line149
 70
    0
 62
    7
  6
CONTINUOUS
  0
LAYER
  5
A6B
330
A49
100
AcDbSymbolTableRecord
100
AcDbLayerTableRecord
  2
Line150
 70
    0
 62
    7
  6
CONTINUOUS
  0
LAYER
  5
A6C
330
A49
100
AcDbSymbolTableRecord
100
AcDbLayerTableRecord
  2
Line152
 70
    0
 62
    7
  6
CONTINUOUS
  0
LAYER
  5
A6D
330
A49
100
AcDbSymbolTableRecord
100
AcDbLayerTableRecord
  2
Line153
 70
    0
 62
    7
  6
CONTINUOUS
  0
LAYER
  5
A6E
330
A49
100
AcDbSymbolTableRecord
100
AcDbLayerTableRecord
  2
Line154
 70
    0
 62
    7
  6
CONTINUOUS
  0
LAYER
  5
A6F
330
A49
100
AcDbSymbolTableRecord
100
AcDbLayerTableRecord
  2
Line155
 70
    0
 62
    7
  6
CONTINUOUS
  0
LAYER
  5
A70
330
A49
100
AcDbSymbolTableRecord
100
AcDbLayerTableRecord
  2
Line156
 70
    0
 62
    7
  6
CONTINUOUS
  0
LAYER
  5
A71
330
A49
100
AcDbSymbolTableRecord
100
AcDbLayerTableRecord
  2
Line157
 70
    0
 62
    7
  6
CONTINUOUS
  0
LAYER
  5
A72
330
A49
100
AcDbSymbolTableRecord
100
AcDbLayerTableRecord
  2
Line158
 70
    0
 62
    7
  6
CONTINUOUS
  0
LAYER
  5
A73
330
A49
100
AcDbSymbolTableRecord
100
AcDbLayerTableRecord
  2
Line159
 70
    0
 62
    7
  6
CONTINUOUS
  0
LAYER
  5
A74
330
A49
100
AcDbSymbolTableRecord
100
AcDbLayerTableRecord
  2
Line162
 70
    0
 62
    7
  6
CONTINUOUS
  0
LAYER
  5
A75
330
A49
100
AcDbSymbolTableRecord
100
AcDbLayerTableRecord
  2
Line163
 70
    0
 62
    7
  6
CONTINUOUS
  0
LAYER
  5
A76
330
A49
100
AcDbSymbolTableRecord
100
AcDbLayerTableRecord
  2
Line164
 70
    0
 62
    7
  6
CONTINUOUS
  0
LAYER
  5
A77
330
A49
100
AcDbSymbolTableRecord
100
AcDbLayerTableRecord
  2
Line166
 70
    0
 62
    7
  6
CONTINUOUS
  0
LAYER
  5
A78
330
A49
100
AcDbSymbolTableRecord
100
AcDbLayerTableRecord
  2
Line167
 70
    0
 62
    7
  6
CONTINUOUS
  0
LAYER
  5
A79
330
A49
100
AcDbSymbolTableRecord
100
AcDbLayerTableRecord
  2
Line168
 70
    0
 62
    7
  6
CONTINUOUS
  0
LAYER
  5
A7A
330
A49
100
AcDbSymbolTableRecord
100
AcDbLayerTableRecord
  2
Line169
 70
    0
 62
    7
  6
CONTINUOUS
  0
LAYER
  5
A7B
330
A49
100
AcDbSymbolTableRecord
100
AcDbLayerTableRecord
  2
Line170
 70
    0
 62
    7
  6
CONTINUOUS
  0
LAYER
  5
A7C
330
A49
100
AcDbSymbolTableRecord
100
AcDbLayerTableRecord
  2
Line171
 70
    0
 62
    7
  6
CONTINUOUS
  0
LAYER
  5
A7D
330
A49
100
AcDbSymbolTableRecord
100
AcDbLayerTableRecord
  2
Line178
 70
    0
 62
    7
  6
CONTINUOUS
  0
LAYER
  5
A7E
330
A49
100
AcDbSymbolTableRecord
100
AcDbLayerTableRecord
  2
Line172
 70
    0
 62
    7
  6
CONTINUOUS
  0
LAYER
  5
A7F
330
A49
100
AcDbSymbolTableRecord
100
AcDbLayerTableRecord
  2
Line182
 70
    0
 62
    7
  6
CONTINUOUS
  0
LAYER
  5
A80
330
A49
100
AcDbSymbolTableRecord
100
AcDbLayerTableRecord
  2
Line174
 70
    0
 62
    7
  6
CONTINUOUS
  0
LAYER
  5
A81
330
A49
100
AcDbSymbolTableRecord
100
AcDbLayerTableRecord
  2
Line181
 70
    0
 62
    7
  6
CONTINUOUS
  0
LAYER
  5
A82
330
A49
100
AcDbSymbolTableRecord
100
AcDbLayerTableRecord
  2
Line179
 70
    0
 62
    7
  6
CONTINUOUS
  0
LAYER
  5
A83
330
A49
100
AcDbSymbolTableRecord
100
AcDbLayerTableRecord
  2
Line185
 70
    0
 62
    7
  6
CONTINUOUS
  0
LAYER
  5
A84
330
A49
100
AcDbSymbolTableRecord
100
AcDbLayerTableRecord
  2
Line186
 70
    0
 62
    7
  6
CONTINUOUS
  0
LAYER
  5
A85
330
A49
100
AcDbSymbolTableRecord
100
AcDbLayerTableRecord
  2
Line187
 70
    0
 62
    7
  6
CONTINUOUS
  0
LAYER
  5
A86
330
A49
100
AcDbSymbolTableRecord
100
AcDbLayerTableRecord
  2
Line188
 70
    0
 62
    7
  6
CONTINUOUS
  0
LAYER
  5
A87
330
A49
100
AcDbSymbolTableRecord
100
AcDbLayerTableRecord
  2
Line189
 70
    0
 62
    7
  6
CONTINUOUS
  0
LAYER
  5
A88
330
A49
100
AcDbSymbolTableRecord
100
AcDbLayerTableRecord
  2
Line190
 70
    0
 62
    7
  6
CONTINUOUS
  0
LAYER
  5
A89
330
A49
100
AcDbSymbolTableRecord
100
AcDbLayerTableRecord
  2
Line191
 70
    0
 62
    7
  6
CONTINUOUS
  0
LAYER
  5
A8A
330
A49
100
AcDbSymbolTableRecord
100
AcDbLayerTableRecord
  2
Line192
 70
    0
 62
    7
  6
CONTINUOUS
  0
LAYER
  5
A8B
330
A49
100
AcDbSymbolTableRecord
100
AcDbLayerTableRecord
  2
Line193
 70
    0
 62
    7
  6
CONTINUOUS
  0
LAYER
  5
A8C
330
A49
100
AcDbSymbolTableRecord
100
AcDbLayerTableRecord
  2
Line194
 70
    0
 62
    7
  6
CONTINUOUS
  0
LAYER
  5
A8D
330
A49
100
AcDbSymbolTableRecord
100
AcDbLayerTableRecord
  2
Line195
 70
    0
 62
    7
  6
CONTINUOUS
  0
LAYER
  5
A8E
330
A49
100
AcDbSymbolTableRecord
100
AcDbLayerTableRecord
  2
Line196
 70
    0
 62
    7
  6
CONTINUOUS
  0
LAYER
  5
A8F
330
A49
100
AcDbSymbolTableRecord
100
AcDbLayerTableRecord
  2
Line197
 70
    0
 62
    7
  6
CONTINUOUS
  0
LAYER
  5
A90
330
A49
100
AcDbSymbolTableRecord
100
AcDbLayerTableRecord
  2
Line198
 70
    0
 62
    7
  6
CONTINUOUS
  0
LAYER
  5
A91
330
A49
100
AcDbSymbolTableRecord
100
AcDbLayerTableRecord
  2
Line199
 70
    0
 62
    7
  6
CONTINUOUS
  0
LAYER
  5
A92
330
A49
100
AcDbSymbolTableRecord
100
AcDbLayerTableRecord
  2
Line200
 70
    0
 62
    7
  6
CONTINUOUS
  0
LAYER
  5
A93
330
A49
100
AcDbSymbolTableRecord
100
AcDbLayerTableRecord
  2
Line202
 70
    0
 62
    7
  6
CONTINUOUS
  0
LAYER
  5
A94
330
A49
100
AcDbSymbolTableRecord
100
AcDbLayerTableRecord
  2
Line203
 70
    0
 62
    7
  6
CONTINUOUS
  0
LAYER
  5
A95
330
A49
100
AcDbSymbolTableRecord
100
AcDbLayerTableRecord
  2
Line204
 70
    0
 62
    7
  6
CONTINUOUS
  0
LAYER
  5
A96
330
A49
100
AcDbSymbolTableRecord
100
AcDbLayerTableRecord
  2
Line205
 70
    0
 62
    7
  6
CONTINUOUS
  0
LAYER
  5
A97
330
A49
100
AcDbSymbolTableRecord
100
AcDbLayerTableRecord
  2
Line206
 70
    0
 62
    7
  6
CONTINUOUS
  0
ENDTAB
  0
TABLE
  2
STYLE
  5
70
330
0
100
AcDbSymbolTable
 70
     2
  0
STYLE
  5
71
330
70
100
AcDbSymbolTableRecord
100
AcDbTextStyleTableRecord
  2
STANDARD
 70
     0
 40
0.0
 41
1.0
 50
0.0
 71
     0
 42
2.5
  3
arial.ttf
  4

  0
STYLE
  5
72
330
70
100
AcDbSymbolTableRecord
100
AcDbTextStyleTableRecord
  2
ANNOTATIVE
 70
     0
 40
0.0
 41
1.0
 50
0.0
 71
     0
 42
2.5
  3
arial.ttf
  4

  0
ENDTAB
  0
TABLE
  2
VIEW
  5
73
330
0
100
AcDbSymbolTable
 70
     0
  0
ENDTAB
  0
TABLE
  2
UCS
  5
74
330
0
100
AcDbSymbolTable
 70
     0
  0
ENDTAB
  0
TABLE
  2
APPID
  5
75
330
0
100
AcDbSymbolTable
 70
     2
  0
APPID
  5
76
330
75
100
AcDbSymbolTableRecord
100
AcDbRegAppTableRecord
  2
ACAD
 70
     0
  0
APPID
  5
77
330
75
100
AcDbSymbolTableRecord
100
AcDbRegAppTableRecord
  2
ACADANNOTATIVE
 70
     0
  0
ENDTAB
  0
TABLE
  2
DIMSTYLE
  5
78
330
0
100
AcDbSymbolTable
 70
     2
  0
DIMSTYLE
105
79
330
78
100
AcDbSymbolTableRecord
100
AcDbDimStyleTableRecord
  2
STANDARD
 70
     0
  3

  4

  5

  6

  7

 40
0.0
 41
2.5
 42
0.625
 43
3.75
 44
1.25
 45
0.0
 46
0.0
 47
0.0
 48
0.0
140
2.5
141
2.5
142
0.0
143
0.03937007874016
144
1.0
145
0.0
146
1.0
147
0.625
 71
     0
 72
     0
 73
     0
 74
     0
 75
     0
 76
     0
 77
     1
 78
     8
170
     0
171
     3
172
     1
173
     0
174
     0
175
     0
176
     0
177
     0
178
     0
270
     2
271
     2
272
     2
273
     2
274
     3
340
71
275
     0
280
     0
281
     0
282
     0
283
     0
284
     8
285
     0
286
     0
287
     3
288
     0
  0
ENDTAB
  0
TABLE
  2
BLOCK_RECORD
  5
A01
330
0
100
AcDbSymbolTable
  70
5
  0
BLOCK_RECORD
  5
A02
330
A01
100
AcDbSymbolTableRecord
100
AcDbBlockTableRecord
  2
*MODEL_SPACE
  0
BLOCK_RECORD
  5
A03
330
A01
100
AcDbSymbolTableRecord
100
AcDbBlockTableRecord
  2
*PAPER_SPACE
  0
ENDTAB
  0
ENDSEC
  0
SECTION
  2
BLOCKS
  0
BLOCK
  5
A04
330
A02
100
AcDbEntity
  8
0
100
AcDbBlockBegin
  2
*MODEL_SPACE
 70
   0
 10
0
 20
0
 30
0
  3
*MODEL_SPACE
  1
 
  0
ENDBLK
  5
A05
330
A02
100
AcDbEntity
  8
0
100
AcDbBlockEnd
  0
BLOCK
  5
A06
330
A03
100
AcDbEntity
 67
1
  8
0
100
AcDbBlockBegin
  2
*PAPER_SPACE
 70
   0
 10
0
 20
0
 30
0
  3
*PAPER_SPACE
  1
 
  0
ENDBLK
  5
A07
330
A03
100
AcDbEntity
 67
    1
  8
0
100
AcDbBlockEnd
  0
ENDSEC
  0
SECTION
  2
ENTITIES
  0
LINE
  5
A08
330
A02
100
AcDbEntity
  8
Line
100
AcDbLine
 10
0.000000000
 20
0.000000000
 30
0.000000000
 11
0.000000000
 21
2400.000000000
 31
0.000000000
  0
LINE
  5
A09
330
A02
100
AcDbEntity
  8
Line001
100
AcDbLine
 10
0.000000000
 20
2400.000000000
 30
0.000000000
 11
0.000000000
 21
2480.000000000
 31
0.000000000
  0
LINE
  5
A0A
330
A02
100
AcDbEntity
  8
Line002
100
AcDbLine
 10
0.000000000
 20
2480.000000000
 30
0.000000000
 11
0.000000000
 21
8005.000000000
 31
0.000000000
  0
LINE
  5
A0B
330
A02
100
AcDbEntity
  8
Line005
100
AcDbLine
 10
0.000000000
 20
8005.000000000
 30
0.000000000
 11
4265.000000000
 21
8005.000000000
 31
0.000000000
  0
LINE
  5
A0C
330
A02
100
AcDbEntity
  8
Line014
100
AcDbLine
 10
4265.000000000
 20
4142.000000000
 30
0.000000000
 11
4265.000000000
 21
8005.000000000
 31
0.000000000
  0
LINE
  5
A0D
330
A02
100
AcDbEntity
  8
Line019
100
AcDbLine
 10
5300.000000000
 20
2702.000000000
 30
0.000000000
 11
5300.000000000
 21
2855.000000000
 31
0.000000000
  0
LINE
  5
A0E
330
A02
100
AcDbEntity
  8
Line024
100
AcDbLine
 10
10580.000000000
 20
6840.000000000
 30
0.000000000
 11
10580.000000000
 21
0.000000000
 31
0.000000000
  0
LINE
  5
A0F
330
A02
100
AcDbEntity
  8
Line026
100
AcDbLine
 10
6345.000000000
 20
2775.000000000
 30
0.000000000
 11
6345.000000000
 21
1300.000000000
 31
0.000000000
  0
LINE
  5
A10
330
A02
100
AcDbEntity
  8
Line027
100
AcDbLine
 10
6425.000000000
 20
1300.000000000
 30
0.000000000
 11
6425.000000000
 21
2400.000000000
 31
0.000000000
  0
LINE
  5
A11
330
A02
100
AcDbEntity
  8
Line032
100
AcDbLine
 10
5380.000000000
 20
1200.000000000
 30
0.000000000
 11
7390.000000000
 21
1200.000000000
 31
0.000000000
  0
LINE
  5
A12
330
A02
100
AcDbEntity
  8
Line033
100
AcDbLine
 10
7390.000000000
 20
1200.000000000
 30
0.000000000
 11
7390.000000000
 21
0.000000000
 31
0.000000000
  0
LINE
  5
A13
330
A02
100
AcDbEntity
  8
Line036
100
AcDbLine
 10
5380.000000000
 20
1300.000000000
 30
0.000000000
 11
10580.000000000
 21
1300.000000000
 31
0.000000000
  0
LINE
  5
A14
330
A02
100
AcDbEntity
  8
Line043
100
AcDbLine
 10
7345.000000000
 20
2855.000000000
 30
0.000000000
 11
5300.000000000
 21
2855.000000000
 31
0.000000000
  0
LINE
  5
A15
330
A02
100
AcDbEntity
  8
Line048
100
AcDbLine
 10
10580.000000000
 20
1300.000000000
 30
0.000000000
 11
10580.000000000
 21
4055.000000000
 31
0.000000000
  0
LINE
  5
A16
330
A02
100
AcDbEntity
  8
Line051
100
AcDbLine
 10
10580.000000000
 20
4055.000000000
 30
0.000000000
 11
7425.000000000
 21
4055.000000000
 31
0.000000000
  0
LINE
  5
A17
330
A02
100
AcDbEntity
  8
Line053
100
AcDbLine
 10
10580.000000000
 20
4055.000000000
 30
0.000000000
 11
10580.000000000
 21
4135.000000000
 31
0.000000000
  0
LINE
  5
A18
330
A02
100
AcDbEntity
  8
Line055
100
AcDbLine
 10
7345.000000000
 20
4135.000000000
 30
0.000000000
 11
10580.000000000
 21
4135.000000000
 31
0.000000000
  0
LINE
  5
A19
330
A02
100
AcDbEntity
  8
Line057
100
AcDbLine
 10
10580.000000000
 20
4135.000000000
 30
0.000000000
 11
10580.000000000
 21
6840.000000000
 31
0.000000000
  0
LINE
  5
A1A
330
A02
100
AcDbEntity
  8
Line059
100
AcDbLine
 10
10580.000000000
 20
6840.000000000
 30
0.000000000
 11
4265.000000000
 21
6840.000000000
 31
0.000000000
  0
LINE
  5
A1B
330
A02
100
AcDbEntity
  8
Line062
100
AcDbLine
 10
10580.000000000
 20
6840.000000000
 30
0.000000000
 11
6345.000000000
 21
6840.000000000
 31
0.000000000
  0
LINE
  5
A1C
330
A02
100
AcDbEntity
  8
Line065
100
AcDbLine
 10
6345.000000000
 20
6840.000000000
 30
0.000000000
 11
6245.000000000
 21
6840.000000000
 31
0.000000000
  0
LINE
  5
A1D
330
A02
100
AcDbEntity
  8
Line076
100
AcDbLine
 10
6345.000000000
 20
4155.000000000
 30
0.000000000
 11
6345.000000000
 21
6840.000000000
 31
0.000000000
  0
LINE
  5
A1E
330
A02
100
AcDbEntity
  8
Line122
100
AcDbLine
 10
6425.000000000
 20
2775.000000000
 30
0.000000000
 11
6425.000000000
 21
2400.000000000
 31
0.000000000
  0
LINE
  5
A1F
330
A02
100
AcDbEntity
  8
Line083
100
AcDbLine
 10
4365.000000000
 20
6840.000000000
 30
0.000000000
 11
4365.000000000
 21
4155.000000000
 31
0.000000000
  0
LINE
  5
A20
330
A02
100
AcDbEntity
  8
Line128
100
AcDbLine
 10
6245.000000000
 20
4155.000000000
 30
0.000000000
 11
6245.000000000
 21
6840.000000000
 31
0.000000000
  0
LINE
  5
A21
330
A02
100
AcDbEntity
  8
Line137
100
AcDbLine
 10
4665.000000000
 20
4055.000000000
 30
0.000000000
 11
3800.000000000
 21
4055.000000000
 31
0.000000000
  0
LINE
  5
A22
330
A02
100
AcDbEntity
  8
Line140
100
AcDbLine
 10
3800.000000000
 20
4055.000000000
 30
0.000000000
 11
3800.000000000
 21
4142.000000000
 31
0.000000000
  0
LINE
  5
A23
330
A02
100
AcDbEntity
  8
Line142
100
AcDbLine
 10
3800.000000000
 20
4142.000000000
 30
0.000000000
 11
4265.000000000
 21
4142.000000000
 31
0.000000000
  0
LINE
  5
A24
330
A02
100
AcDbEntity
  8
Line145
100
AcDbLine
 10
4265.000000000
 20
8005.000000000
 30
0.000000000
 11
4265.000000000
 21
4142.000000000
 31
0.000000000
  0
LINE
  5
A25
330
A02
100
AcDbEntity
  8
Line149
100
AcDbLine
 10
5380.000000000
 20
2775.000000000
 30
0.000000000
 11
6345.000000000
 21
2775.000000000
 31
0.000000000
  0
LINE
  5
A26
330
A02
100
AcDbEntity
  8
Line150
100
AcDbLine
 10
6425.000000000
 20
2775.000000000
 30
0.000000000
 11
7425.000000000
 21
2775.000000000
 31
0.000000000
  0
LINE
  5
A27
330
A02
100
AcDbEntity
  8
Line152
100
AcDbLine
 10
3800.000000000
 20
2480.000000000
 30
0.000000000
 11
2413.000000000
 21
2480.000000000
 31
0.000000000
  0
LINE
  5
A28
330
A02
100
AcDbEntity
  8
Line155
100
AcDbLine
 10
3800.000000000
 20
2480.000000000
 30
0.000000000
 11
3800.000000000
 21
1796.000000000
 31
0.000000000
  0
LINE
  5
A29
330
A02
100
AcDbEntity
  8
Line156
100
AcDbLine
 10
3800.000000000
 20
1796.000000000
 30
0.000000000
 11
3720.000000000
 21
1796.000000000
 31
0.000000000
  0
LINE
  5
A2A
330
A02
100
AcDbEntity
  8
Line157
100
AcDbLine
 10
2413.000000000
 20
2480.000000000
 30
0.000000000
 11
2413.000000000
 21
2399.000000000
 31
0.000000000
  0
LINE
  5
A2B
330
A02
100
AcDbEntity
  8
Line158
100
AcDbLine
 10
2413.000000000
 20
2399.000000000
 30
0.000000000
 11
3720.000000000
 21
2399.000000000
 31
0.000000000
  0
LINE
  5
A2C
330
A02
100
AcDbEntity
  8
Line159
100
AcDbLine
 10
3720.000000000
 20
2399.000000000
 30
0.000000000
 11
3720.000000000
 21
1796.000000000
 31
0.000000000
  0
LINE
  5
A2D
330
A02
100
AcDbEntity
  8
Line162
100
AcDbLine
 10
0.000000000
 20
0.000000000
 30
0.000000000
 11
4100.000000000
 21
0.000000000
 31
0.000000000
  0
LINE
  5
A2E
330
A02
100
AcDbEntity
  8
Line163
100
AcDbLine
 10
5000.000000000
 20
0.000000000
 30
0.000000000
 11
10580.000000000
 21
0.000000000
 31
0.000000000
  0
LINE
  5
A2F
330
A02
100
AcDbEntity
  8
Line164
100
AcDbLine
 10
5300.000000000
 20
2702.000000000
 30
0.000000000
 11
5380.000000000
 21
2702.000000000
 31
0.000000000
  0
LINE
  5
A30
330
A02
100
AcDbEntity
  8
Line166
100
AcDbLine
 10
5380.000000000
 20
1300.000000000
 30
0.000000000
 11
5380.000000000
 21
1800.000000000
 31
0.000000000
  0
LINE
  5
A31
330
A02
100
AcDbEntity
  8
Line170
100
AcDbLine
 10
5380.000000000
 20
2775.000000000
 30
0.000000000
 11
5380.000000000
 21
2702.000000000
 31
0.000000000
  0
LINE
  5
A32
330
A02
100
AcDbEntity
  8
Line171
100
AcDbLine
 10
5380.000000000
 20
1800.000000000
 30
0.000000000
 11
5300.000000000
 21
1800.000000000
 31
0.000000000
  0
LINE
  5
A33
330
A02
100
AcDbEntity
  8
Line178
100
AcDbLine
 10
5300.000000000
 20
1800.000000000
 30
0.000000000
 11
5300.000000000
 21
1000.000000000
 31
0.000000000
  0
LINE
  5
A34
330
A02
100
AcDbEntity
  8
Line172
100
AcDbLine
 10
5380.000000000
 20
1200.000000000
 30
0.000000000
 11
5380.000000000
 21
1000.000000000
 31
0.000000000
  0
LINE
  5
A35
330
A02
100
AcDbEntity
  8
Line182
100
AcDbLine
 10
5300.000000000
 20
200.000000000
 30
0.000000000
 11
5300.000000000
 21
0.000000000
 31
0.000000000
  0
LINE
  5
A36
330
A02
100
AcDbEntity
  8
Line174
100
AcDbLine
 10
5380.000000000
 20
200.000000000
 30
0.000000000
 11
5380.000000000
 21
0.000000000
 31
0.000000000
  0
LINE
  5
A37
330
A02
100
AcDbEntity
  8
Line181
100
AcDbLine
 10
5380.000000000
 20
200.000000000
 30
0.000000000
 11
5300.000000000
 21
200.000000000
 31
0.000000000
  0
LINE
  5
A38
330
A02
100
AcDbEntity
  8
Line179
100
AcDbLine
 10
5300.000000000
 20
1000.000000000
 30
0.000000000
 11
5380.000000000
 21
1000.000000000
 31
0.000000000
  0
LINE
  5
A39
330
A02
100
AcDbEntity
  8
Line185
100
AcDbLine
 10
7345.000000000
 20
4035.000000000
 30
0.000000000
 11
7345.000000000
 21
3855.000000000
 31
0.000000000
  0
LINE
  5
A3A
330
A02
100
AcDbEntity
  8
Line186
100
AcDbLine
 10
7345.000000000
 20
2855.000000000
 30
0.000000000
 11
7345.000000000
 21
3055.000000000
 31
0.000000000
  0
LINE
  5
A3B
330
A02
100
AcDbEntity
  8
Line187
100
AcDbLine
 10
7345.000000000
 20
3855.000000000
 30
0.000000000
 11
7425.000000000
 21
3855.000000000
 31
0.000000000
  0
LINE
  5
A3C
330
A02
100
AcDbEntity
  8
Line188
100
AcDbLine
 10
7345.000000000
 20
3055.000000000
 30
0.000000000
 11
7425.000000000
 21
3055.000000000
 31
0.000000000
  0
LINE
  5
A3D
330
A02
100
AcDbEntity
  8
Line192
100
AcDbLine
 10
7425.000000000
 20
4055.000000000
 30
0.000000000
 11
7425.000000000
 21
3855.000000000
 31
0.000000000
  0
LINE
  5
A3E
330
A02
100
AcDbEntity
  8
Line193
100
AcDbLine
 10
7425.000000000
 20
3055.000000000
 30
0.000000000
 11
7425.000000000
 21
2775.000000000
 31
0.000000000
  0
LINE
  5
A3F
330
A02
100
AcDbEntity
  8
Line194
100
AcDbLine
 10
5465.000000000
 20
4055.000000000
 30
0.000000000
 11
6445.000000000
 21
4055.000000000
 31
0.000000000
  0
LINE
  5
A40
330
A02
100
AcDbEntity
  8
Line195
100
AcDbLine
 10
7345.000000000
 20
4135.000000000
 30
0.000000000
 11
7245.000000000
 21
4135.000000000
 31
0.000000000
  0
LINE
  5
A41
330
A02
100
AcDbEntity
  8
Line196
100
AcDbLine
 10
6445.000000000
 20
4055.000000000
 30
0.000000000
 11
6445.000000000
 21
4155.000000000
 31
0.000000000
  0
LINE
  5
A42
330
A02
100
AcDbEntity
  8
Line197
100
AcDbLine
 10
6445.000000000
 20
4155.000000000
 30
0.000000000
 11
6345.000000000
 21
4155.000000000
 31
0.000000000
  0
LINE
  5
A43
330
A02
100
AcDbEntity
  8
Line198
100
AcDbLine
 10
7245.000000000
 20
4135.000000000
 30
0.000000000
 11
7245.000000000
 21
4035.000000000
 31
0.000000000
  0
LINE
  5
A44
330
A02
100
AcDbEntity
  8
Line199
100
AcDbLine
 10
7245.000000000
 20
4035.000000000
 30
0.000000000
 11
7345.000000000
 21
4035.000000000
 31
0.000000000
  0
LINE
  5
A45
330
A02
100
AcDbEntity
  8
Line200
100
AcDbLine
 10
4365.000000000
 20
4155.000000000
 30
0.000000000
 11
4665.000000000
 21
4155.000000000
 31
0.000000000
  0
LINE
  5
A46
330
A02
100
AcDbEntity
  8
Line202
100
AcDbLine
 10
5465.000000000
 20
4155.000000000
 30
0.000000000
 11
6245.000000000
 21
4155.000000000
 31
0.000000000
  0
LINE
  5
A47
330
A02
100
AcDbEntity
  8
Line204
100
AcDbLine
 10
4665.000000000
 20
4155.000000000
 30
0.000000000
 11
4665.000000000
 21
4055.000000000
 31
0.000000000
  0
LINE
  5
A48
330
A02
100
AcDbEntity
  8
Line206
100
AcDbLine
 10
5465.000000000
 20
4055.000000000
 30
0.000000000
 11
5465.000000000
 21
4155.000000000
 31
0.000000000
  0
ENDSEC
  0
SECTION
  2
OBJECTS
  0
DICTIONARY
  5
F000
330
0
100
AcDbDictionary
  3
ACAD_GROUP
350
F001
  0
DICTIONARY
  5
F001
330
F000
100
AcDbDictionary
  0
ENDSEC
  0
EOF